<svg xmlns="http://www.w3.org/2000/svg" xmlns:xlink="http://www.w3.org/1999/xlink" width="500" zoomAndPan="magnify" viewBox="0 0 375 374.999991" height="500" preserveAspectRatio="xMidYMid meet" version="1.0"><defs><clipPath id="b58d2a1d90"><path d="M 8.121094 37.5 L 367.035156 37.5 L 367.035156 319.5 L 8.121094 319.5 Z M 8.121094 37.5 " clip-rule="nonzero"/></clipPath></defs><g clip-path="url(#b58d2a1d90)"><path fill="#000000" d="M 272.003906 88.570312 C 278.550781 88.570312 278.550781 78.429688 272.003906 78.429688 C 265.472656 78.429688 265.460938 88.570312 272.003906 88.570312 Z M 107.308594 87.003906 C 113.847656 87.003906 113.859375 76.855469 107.308594 76.855469 C 100.777344 76.855469 100.765625 87.003906 107.308594 87.003906 Z M 81.703125 125.558594 C 88.238281 125.558594 88.246094 115.414062 81.703125 115.414062 C 75.160156 115.414062 75.152344 125.558594 81.703125 125.558594 Z M 155.773438 104.933594 C 162.304688 104.933594 162.332031 94.792969 155.773438 94.792969 C 149.242188 94.792969 149.230469 104.933594 155.773438 104.933594 Z M 173.109375 63 C 179.65625 63 179.65625 52.855469 173.109375 52.855469 C 166.578125 52.855469 166.566406 63 173.109375 63 Z M 260.582031 127.527344 C 267.125 127.527344 267.140625 117.382812 260.582031 117.382812 C 254.050781 117.382812 254.039062 127.527344 260.582031 127.527344 Z M 227.886719 74.015625 C 234.417969 74.015625 234.429688 63.871094 227.886719 63.871094 C 221.34375 63.871094 221.328125 74.015625 227.886719 74.015625 Z M 187.582031 47.628906 C 106.066406 47.628906 39.753906 88.421875 39.753906 138.566406 L 39.75 142.921875 C 39.75 147.984375 43.871094 152.101562 48.941406 152.101562 L 326.230469 152.101562 C 331.292969 152.101562 335.414062 147.984375 335.414062 142.921875 L 335.414062 138.566406 C 335.414062 88.421875 269.097656 47.628906 187.585938 47.628906 Z M 326.226562 162.230469 L 48.9375 162.230469 C 38.277344 162.230469 29.605469 153.570312 29.605469 142.921875 L 29.605469 138.566406 C 29.605469 111.121094 46.355469 85.484375 76.761719 66.394531 C 106.441406 47.757812 145.792969 37.5 187.582031 37.5 C 229.371094 37.5 268.722656 47.757812 298.402344 66.394531 C 328.8125 85.484375 345.554688 111.121094 345.554688 138.566406 L 345.554688 142.921875 C 345.554688 153.570312 336.878906 162.230469 326.226562 162.230469 Z M 352.847656 179.71875 C 353.519531 179.199219 353.292969 179.402344 352.542969 179.894531 C 351.476562 180.589844 350.398438 181.261719 349.285156 181.882812 C 345.960938 183.695312 342.335938 185.035156 338.582031 185.644531 C 333 186.554688 327.316406 185.722656 322.230469 183.25 C 316.472656 180.464844 311.996094 175.84375 306.050781 173.308594 C 293.671875 168.015625 278.691406 170.601562 268.609375 179.554688 C 268.496094 179.640625 268.332031 179.757812 268.117188 179.894531 C 267.050781 180.589844 265.972656 181.261719 264.855469 181.882812 C 261.535156 183.695312 257.894531 185.035156 254.152344 185.644531 C 248.570312 186.554688 242.890625 185.722656 237.804688 183.25 C 232.046875 180.464844 227.554688 175.84375 221.621094 173.308594 C 209.242188 168.015625 194.265625 170.601562 184.183594 179.554688 C 184.070312 179.640625 183.902344 179.757812 183.6875 179.894531 C 182.621094 180.589844 181.53125 181.261719 180.414062 181.882812 C 177.09375 183.695312 173.464844 185.035156 169.722656 185.644531 C 164.144531 186.554688 158.449219 185.722656 153.363281 183.25 C 147.605469 180.464844 143.128906 175.84375 137.191406 173.308594 C 124.808594 168.015625 109.828125 170.601562 99.753906 179.554688 C 99.636719 179.640625 99.472656 179.757812 99.253906 179.894531 C 98.183594 180.589844 97.109375 181.261719 95.984375 181.882812 C 92.664062 183.695312 89.03125 185.035156 85.289062 185.644531 C 79.710938 186.554688 74.019531 185.722656 68.933594 183.25 C 63.183594 180.464844 58.699219 175.84375 52.761719 173.308594 C 40.296875 167.992188 25.195312 170.625 15.121094 179.71875 C 10.261719 184.113281 17.46875 191.253906 22.308594 186.886719 C 25.386719 184.113281 30.566406 181.769531 35.046875 180.972656 C 48.128906 178.617188 55.710938 188.734375 66.65625 193.304688 C 79.921875 198.839844 95.628906 195.726562 106.738281 186.886719 C 109.824219 184.113281 115 181.769531 119.476562 180.972656 C 132.558594 178.617188 140.148438 188.734375 151.09375 193.304688 C 164.359375 198.839844 180.058594 195.726562 191.171875 186.886719 C 194.253906 184.113281 199.425781 181.769531 203.917969 180.972656 C 216.992188 178.617188 224.578125 188.734375 235.519531 193.304688 C 248.789062 198.839844 264.488281 195.726562 275.609375 186.886719 C 278.691406 184.113281 283.855469 181.769531 288.34375 180.972656 C 301.433594 178.617188 309.015625 188.734375 319.960938 193.304688 C 333.214844 198.839844 348.929688 195.726562 360.039062 186.886719 C 365.148438 182.820312 357.921875 175.691406 352.847656 179.71875 Z M 25.449219 214.507812 C 21.488281 214.507812 18.269531 217.722656 18.269531 221.675781 L 18.269531 228.273438 C 18.269531 232.222656 21.488281 235.441406 25.449219 235.441406 L 349.714844 235.441406 C 353.671875 235.441406 356.894531 232.222656 356.894531 228.273438 L 356.894531 221.675781 C 356.894531 217.722656 353.671875 214.507812 349.714844 214.507812 Z M 349.714844 245.574219 L 25.449219 245.574219 C 15.894531 245.574219 8.125 237.820312 8.125 228.273438 L 8.125 221.675781 C 8.125 212.136719 15.894531 204.375 25.449219 204.375 L 349.714844 204.375 C 359.265625 204.375 367.039062 212.136719 367.039062 221.675781 L 367.039062 228.273438 C 367.039062 237.820312 359.265625 245.574219 349.714844 245.574219 Z M 48.9375 265.695312 C 43.867188 265.695312 39.746094 269.8125 39.746094 274.863281 L 39.746094 281.210938 C 39.746094 296.734375 52.398438 309.375 67.953125 309.375 L 307.199219 309.375 C 322.761719 309.375 335.402344 296.734375 335.402344 281.210938 L 335.402344 274.863281 C 335.402344 269.8125 331.28125 265.695312 326.222656 265.695312 Z M 307.203125 319.507812 L 67.960938 319.507812 C 46.808594 319.507812 29.605469 302.320312 29.605469 281.210938 L 29.605469 274.863281 C 29.605469 264.226562 38.277344 255.5625 48.941406 255.5625 L 326.230469 255.5625 C 336.886719 255.5625 345.558594 264.226562 345.558594 274.863281 L 345.558594 281.210938 C 345.558594 302.320312 328.363281 319.507812 307.207031 319.507812 " fill-opacity="1" fill-rule="nonzero"/></g></svg>